inDegrees=yes
name=ik_S40_A08_T01
DataType=double
version=3
OpenSimVersion=4.3-2021-08-27-4bc7ad9
endheader
time	pelvis_tilt	pelvis_list	pelvis_rotation	pelvis_tx	pelvis_ty	pelvis_tz	hip_flexion_r	hip_adduction_r	hip_rotation_r	knee_angle_r	knee_angle_r_beta	ankle_angle_r	subtalar_angle_r	mtp_angle_r	hip_flexion_l	hip_adduction_l	hip_rotation_l	knee_angle_l	knee_angle_l_beta	ankle_angle_l	subtalar_angle_l	mtp_angle_l	lumbar_extension	lumbar_bending	lumbar_rotation	arm_flex_r	arm_add_r	arm_rot_r	elbow_flex_r	pro_sup_r	wrist_flex_r	wrist_dev_r	arm_flex_l	arm_add_l	arm_rot_l	elbow_flex_l	pro_sup_l	wrist_flex_l	wrist_dev_l
13.99999999999979	-4.394868272122102	-1.206623559855848	32.24216523005126	0	0.9399999999999999	0	37.55651757139769	-10.27302759404016	-9.920765318742456	43.97186428698918	0.76745381004807	0	0	0	37.55651757139769	-10.27302759404016	-9.920765318742456	43.97186428698918	0.76745381004807	0	0	0	-3.905327572305078	-1.115499732981154	3.981479004730183	15.11469708837588	-5.429471007679367	7.831964488186213	46.71744733997277	120.926141701682	0	0	63.27230927335646	11.23320823896396	-2.050718955027474	20.23280985933685	70.66514912966238	0	0
14.01999999999979	-4.389815078736297	-1.137672822172874	32.17095191551767	0	0.9399999999999999	0	37.55835146412628	-10.27280244521732	-9.92080770355008	43.97377571484508	0.7674871707575698	0	0	0	37.55835146412628	-10.27280244521732	-9.92080770355008	43.97377571484508	0.7674871707575698	0	0	0	-3.86429672798497	-1.059786123779824	3.988110763734414	15.07230176093458	-5.518848914804584	7.889482953471625	46.69548622118401	120.9433058805093	0	0	63.08687133604806	11.18816716833243	-2.132640358179594	20.23430582683283	70.30339220631295	0	0
14.03999999999979	-4.384708662326892	-1.126254840263321	32.20670602615628	0	0.9399999999999999	0	37.56022235901598	-10.27256810772763	-9.920851519777381	43.97568957024662	0.7675205738357336	0	0	0	37.56022235901598	-10.27256810772763	-9.920851519777381	43.97568957024662	0.7675205738357336	0	0	0	-3.854448718073124	-1.050717781078868	3.966034711480752	15.08968502430612	-5.49205243170695	7.783404830362867	46.69182617113388	120.9712930235624	0	0	62.99761577527055	10.99902316578473	-2.18332023085623	20.30477390614887	70.72519526152729	0	0
14.05999999999979	-4.382890938407443	-1.123841440130313	32.29152501825605	0	0.9399999999999999	0	37.56254217451809	-10.27227856423581	-9.920905732535976	43.97806852866427	0.7675620944928897	0	0	0	37.56254217451809	-10.27227856423581	-9.920905732535976	43.97806852866427	0.7675620944928897	0	0	0	-3.853354342485087	-1.041878666109446	3.874167239834275	15.10501897543187	-5.418593056151294	7.65407806283455	46.68204966263624	121.0483532276821	0	0	62.89684756583314	10.68506203668488	-2.432990702110036	20.52738862636342	71.88812953421341	0	0
14.07999999999979	-4.395198622669246	-1.101312476480775	32.41448541249151	0	0.9399999999999999	0	37.5657220554257	-10.2718762490106	-9.920980719233233	43.98128695057166	0.7676182665518921	0	0	0	37.5657220554257	-10.2718762490106	-9.920980719233233	43.98128695057166	0.7676182665518921	0	0	0	-3.853326798583664	-1.009292355376814	3.794121849868514	15.10914688943682	-5.374263344707651	7.472752341247242	46.68696512657633	121.0490153859895	0	0	62.38048669500127	10.09167883388042	-2.717333810333579	21.26301651345027	72.40279084767667	0	0
14.09999999999979	-4.394465317494565	-1.083224420852188	32.5140052668908	0	0.9399999999999999	0	37.56973576649212	-10.27137058676808	-9.921075126501632	43.98536094159321	0.7676893711089147	0	0	0	37.56973576649212	-10.27137058676808	-9.921075126501632	43.98536094159321	0.7676893711089147	0	0	0	-3.844413484507411	-0.9887485669950156	3.733439740839289	15.11767990564475	-5.334321715179733	7.322393728287219	46.67743975850573	121.0954019834536	0	0	61.67367001106824	9.631737756522913	-2.566630765814696	22.78121689306005	72.69258261019125	0	0
14.11999999999979	-4.408242738702222	-1.077675792382422	32.64145724894803	0	0.9399999999999999	0	37.57229790435566	-10.27105027456957	-9.921135098199548	43.98797775219472	0.7677350430698121	0	0	0	37.57229790435566	-10.27105027456957	-9.921135098199548	43.98797775219472	0.7677350430698121	0	0	0	-3.855650065718961	-0.9668233355820062	3.617695751859082	15.14905308979126	-5.303539019564077	7.19854158007086	46.6622901165276	121.1473308802721	0	0	60.49348588338427	8.997276191344021	-2.428839097777481	25.07727226055288	72.28047603475756	0	0
14.13999999999979	-4.418458879042118	-1.073183069884651	32.84762853749733	0	0.9399999999999999	0	37.57494537442231	-10.27071970420474	-9.921197025217571	43.99068302084972	0.767782258914993	0	0	0	37.57494537442231	-10.27071970420474	-9.921197025217571	43.99068302084972	0.767782258914993	0	0	0	-3.865394269122485	-0.9418390249896269	3.425344733642096	15.20810168740377	-5.247861951605614	6.999635504751208	46.62932978376823	121.2303974780787	0	0	58.88287808505936	8.306207562293293	-2.752904267682612	28.36456148869376	72.55220465753835	0	0
14.15999999999979	-4.441674321146832	-1.071559999998717	32.7404084052475	0	0.9399999999999999	0	37.57888002434328	-10.27022687894528	-9.921289268505204	43.99468795894006	0.7678521582710079	0	0	0	37.57888002434328	-10.27022687894528	-9.921289268505204	43.99468795894006	0.7678521582710079	0	0	0	-3.882394189223515	-0.9367033776067325	3.544431814125547	15.24745184906458	-5.19442000706795	6.761586416530605	46.63947321803017	121.303899696262	0	0	58.9194038865855	8.366410481087161	-2.770802435865217	30.459779890571	73.43418391772376	0	0
14.17999999999979	-4.465227156644331	-1.083757801961412	32.98766266595352	0	0.9399999999999999	0	37.58196260304594	-10.26984056704643	-9.921361572752998	43.99782172788119	0.7679068528570273	0	0	0	37.58196260304594	-10.26984056704643	-9.921361572752998	43.99782172788119	0.7679068528570273	0	0	0	-3.913696659376178	-0.913286207471166	3.303876397802822	15.29437205722555	-5.091361407864191	6.482432942811118	46.65977478567397	121.3832133119674	0	0	57.18692183208918	7.581873325422891	-3.713764508730225	33.5295254561925	74.78185830668347	0	0
14.19999999999979	-4.505979575206904	-1.106417691191719	33.37497365570784	0	0.9399999999999999	0	37.58487153584719	-10.26947650890003	-9.921429754797609	44.0007802648022	0.7679584890673408	0	0	0	37.58487153584719	-10.26947650890003	-9.921429754797609	44.0007802648022	0.7679584890673408	0	0	0	-3.964296739443577	-0.8807653520390378	2.937930300135503	15.36592914122277	-5.030489573964358	6.207395900244536	46.68379421464156	121.661589155932	0	0	55.3811462153017	6.644518770286594	-5.212623939715698	37.91372343280442	76.93856762573689	0	0
14.21999999999979	-4.541112961066426	-1.118130367559129	33.83262720937418	0	0.9399999999999999	0	37.58825613953041	-10.26905196090845	-9.921509216720798	44.00421269045394	0.7680183961962935	0	0	0	37.58825613953041	-10.26905196090845	-9.921509216720798	44.00421269045394	0.7680183961962935	0	0	0	-4.00444693277197	-0.8438644434065924	2.58523342849247	15.36194435894261	-5.007498335833717	5.850532676288658	46.79304872491581	121.7828771936545	0	0	53.38908310292568	5.619778425240386	-6.961268025572421	42.45410202504383	78.95237185147336	0	0
14.23999999999979	-4.625809265055806	-1.164316892850443	34.39267374342081	0	0.9399999999999999	0	37.59103986274408	-10.26870331457221	-9.921574517040899	44.00703745488069	0.7680676976361336	0	0	0	37.59103986274408	-10.26870331457221	-9.921574517040899	44.00703745488069	0.7680676976361336	0	0	0	-4.102373313299569	-0.8159742040261517	2.318295449191416	15.47796534325837	-5.045331728202836	5.37043820532187	46.86952387824269	121.8591009826644	0	0	51.23441974154173	4.751243581097649	-8.656186350179459	46.95297285635434	81.1884122688964	0	0
14.25999999999978	-4.635555672439386	-1.174474197405883	34.86575307565961	0	0.9399999999999999	0	37.59456841471695	-10.26826135263263	-9.921657307127722	44.01061486149722	0.7681301351602747	0	0	0	37.59456841471695	-10.26826135263263	-9.921657307127722	44.01061486149722	0.7681301351602747	0	0	0	-4.121198459327525	-0.7874556846450873	1.971278697310513	15.46411970362558	-5.022383292952218	5.09311365530494	46.93285397309285	121.9018273019088	0	0	48.52403927439278	3.928848429967222	-10.41484176245676	51.31155011378119	83.32786479284779	0	0
